<?xml version="1.0" encoding="UTF-8"?>
<svg xmlns="http://www.w3.org/2000/svg" xmlns:xlink="http://www.w3.org/1999/xlink" width="443.616pt" height="209.143pt" viewBox="0 0 443.616 209.143" version="1.1">
<defs>
<clipPath id="clip1">
  <path d="M 189 108 L 255 108 L 255 144 L 189 144 Z M 189 108 "/>
</clipPath>
<clipPath id="clip2">
  <path d="M 198.667969 141.566406 C 179.964844 152.34375 193.992188 118.195312 198.667969 115.394531 C 214.25 102.460938 229.835938 121.859375 245.421875 110.773438 C 264.125 99.996094 250.097656 134.144531 245.421875 136.949219 C 229.835938 149.882812 214.25 130.480469 198.667969 141.566406 Z M 198.667969 141.566406 "/>
</clipPath>
<clipPath id="clip3">
  <rect width="3" height="3"/>
</clipPath>
<g id="surface6" clip-path="url(#clip3)">
<path style=" stroke:none;fill-rule:nonzero;fill:rgb(38.822937%,37.255859%,78.039551%);fill-opacity:1;" d="M 0 0 L 0 3 L 0.601562 3 L 0.601562 0 Z M 0 0 "/>
</g>
<pattern id="pattern0" patternUnits="userSpaceOnUse" width="3" height="3" patternTransform="matrix(0.959843,0,0,-0.959843,0,209.143)">
<use xlink:href="#surface6"/>
</pattern>
<clipPath id="clip4">
  <path d="M 189 65 L 255 65 L 255 101 L 189 101 Z M 189 65 "/>
</clipPath>
<clipPath id="clip5">
  <path d="M 198.667969 98.367188 C 179.964844 109.144531 193.992188 74.996094 198.667969 72.191406 C 214.25 59.261719 229.835938 78.660156 245.421875 67.574219 C 264.125 56.796875 250.097656 90.945312 245.421875 93.746094 C 229.835938 106.679688 214.25 87.28125 198.667969 98.367188 Z M 198.667969 98.367188 "/>
</clipPath>
<clipPath id="clip6">
  <rect width="3" height="3"/>
</clipPath>
<g id="surface9" clip-path="url(#clip6)">
<path style=" stroke:none;fill-rule:nonzero;fill:rgb(38.822937%,37.255859%,78.039551%);fill-opacity:1;" d="M 0 0 L 0 3 L 0.601562 3 L 0.601562 0 Z M 0 0 "/>
</g>
<pattern id="pattern1" patternUnits="userSpaceOnUse" width="3" height="3" patternTransform="matrix(0.959843,0,0,-0.959843,0,209.143)">
<use xlink:href="#surface9"/>
</pattern>
</defs>
<g id="surface1">
<path style="fill:none;stroke-width:0.79701;stroke-linecap:butt;stroke-linejoin:miter;stroke:rgb(0%,0%,0%);stroke-opacity:1;stroke-miterlimit:10;" d="M 55.79975 90.000687 L -55.801813 90.000687 C -59.778375 90.000687 -63.001031 86.778031 -63.001031 82.801469 L -63.001031 -82.800094 C -63.001031 -86.776656 -59.778375 -89.999313 -55.801813 -89.999313 L 55.79975 -89.999313 C 59.776312 -89.999313 62.998969 -86.776656 62.998969 -82.800094 L 62.998969 82.801469 C 62.998969 86.778031 59.776312 90.000687 55.79975 90.000687 Z M 55.79975 90.000687 " transform="matrix(1,0,0,-1,78.044,104.571)"/>
<path style="fill-rule:nonzero;fill:rgb(100%,100%,100%);fill-opacity:1;stroke-width:1.99255;stroke-linecap:butt;stroke-linejoin:miter;stroke:rgb(17.64679%,79.606628%,23.527527%);stroke-opacity:1;stroke-miterlimit:10;" d="M 31.327094 0.28975 L 0.659125 13.699906 C 0.295844 13.856156 -0.297906 13.856156 -0.661188 13.699906 L -31.32525 0.28975 C -31.692438 0.129594 -31.692438 -0.128219 -31.32525 -0.288375 L -0.661188 -13.698531 C -0.297906 -13.858688 0.295844 -13.858688 0.659125 -13.698531 L 31.327094 -0.288375 C 31.690375 -0.128219 31.690375 0.129594 31.327094 0.28975 Z M 31.327094 0.28975 " transform="matrix(1,0,0,-1,78.044,104.571)"/>
<path style="fill:none;stroke-width:0.79701;stroke-linecap:butt;stroke-linejoin:miter;stroke:rgb(0%,0%,0%);stroke-opacity:1;stroke-miterlimit:10;" d="M 199.803656 90.000687 L 88.202094 90.000687 C 84.225531 90.000687 81.002875 86.778031 81.002875 82.801469 L 81.002875 -82.800094 C 81.002875 -86.776656 84.225531 -89.999313 88.202094 -89.999313 L 199.803656 -89.999313 C 203.780219 -89.999313 207.002875 -86.776656 207.002875 -82.800094 L 207.002875 82.801469 C 207.002875 86.778031 203.780219 90.000687 199.803656 90.000687 Z M 199.803656 90.000687 " transform="matrix(1,0,0,-1,78.044,104.571)"/>
<g clip-path="url(#clip1)" clip-rule="nonzero">
<g clip-path="url(#clip2)" clip-rule="nonzero">
<path style=" stroke:none;fill-rule:nonzero;fill:url(#pattern0);" d="M 179.964844 152.34375 L 264.125 152.34375 L 264.125 99.996094 L 179.964844 99.996094 Z M 179.964844 152.34375 "/>
</g>
</g>
<path style="fill:none;stroke-width:1.99255;stroke-linecap:butt;stroke-linejoin:miter;stroke:rgb(38.822937%,37.255859%,78.039551%);stroke-opacity:1;stroke-miterlimit:10;" d="M -23.376031 27.805594 C -42.079156 17.02825 -28.051812 51.176687 -23.376031 53.977469 C -7.794 66.911062 7.791938 47.512625 23.377875 58.598562 C 42.081 69.375906 28.053656 35.227469 23.377875 32.422781 C 7.791938 19.489187 -7.794 38.891531 -23.376031 27.805594 Z M -23.376031 27.805594 " transform="matrix(1,0,0,-1,222.044,169.372)"/>
<g clip-path="url(#clip4)" clip-rule="nonzero">
<g clip-path="url(#clip5)" clip-rule="nonzero">
<path style=" stroke:none;fill-rule:nonzero;fill:url(#pattern1);" d="M 179.964844 109.144531 L 264.125 109.144531 L 264.125 56.796875 L 179.964844 56.796875 Z M 179.964844 109.144531 "/>
</g>
</g>
<path style="fill:none;stroke-width:1.99255;stroke-linecap:butt;stroke-linejoin:miter;stroke:rgb(38.822937%,37.255859%,78.039551%);stroke-opacity:1;stroke-miterlimit:10;" d="M -23.376031 71.004812 C -42.079156 60.227469 -28.051812 94.375906 -23.376031 97.180594 C -7.794 110.110281 7.791938 90.711844 23.377875 101.797781 C 42.081 112.575125 28.053656 78.426687 23.377875 75.625906 C 7.791938 62.692312 -7.794 82.09075 -23.376031 71.004812 Z M -23.376031 71.004812 " transform="matrix(1,0,0,-1,222.044,169.372)"/>
<path style="fill:none;stroke-width:0.79701;stroke-linecap:butt;stroke-linejoin:miter;stroke:rgb(0%,0%,0%);stroke-opacity:1;stroke-miterlimit:10;" d="M 343.803656 90.000687 L 232.202094 90.000687 C 228.225531 90.000687 225.002875 86.778031 225.002875 82.801469 L 225.002875 -82.800094 C 225.002875 -86.776656 228.225531 -89.999313 232.202094 -89.999313 L 343.803656 -89.999313 C 347.780219 -89.999313 351.002875 -86.776656 351.002875 -82.800094 L 351.002875 82.801469 C 351.002875 86.778031 347.780219 90.000687 343.803656 90.000687 Z M 343.803656 90.000687 " transform="matrix(1,0,0,-1,78.044,104.571)"/>
<path style="fill-rule:nonzero;fill:rgb(100%,0%,45.095825%);fill-opacity:1;stroke-width:1.99255;stroke-linecap:butt;stroke-linejoin:miter;stroke:rgb(100%,0%,45.095825%);stroke-opacity:1;stroke-miterlimit:10;" d="M 17.998969 57.600906 L -18.001031 57.600906 C -25.954156 57.600906 -32.399469 51.155594 -32.399469 43.202469 C -32.399469 35.249344 -25.954156 28.800125 -18.001031 28.800125 L 17.998969 28.800125 C 25.952094 28.800125 32.401312 35.249344 32.401312 43.202469 C 32.401312 51.155594 25.952094 57.600906 17.998969 57.600906 Z M 17.998969 57.600906 " transform="matrix(1,0,0,-1,366.044,190.972)"/>
<path style="fill-rule:nonzero;fill:rgb(100%,0%,45.095825%);fill-opacity:1;stroke-width:1.99255;stroke-linecap:butt;stroke-linejoin:miter;stroke:rgb(100%,0%,45.095825%);stroke-opacity:1;stroke-miterlimit:10;" d="M 17.998969 100.800125 L -18.001031 100.800125 C -25.954156 100.800125 -32.399469 94.354812 -32.399469 86.401687 C -32.399469 78.448562 -25.954156 72.00325 -18.001031 72.00325 L 17.998969 72.00325 C 25.952094 72.00325 32.401312 78.448562 32.401312 86.401687 C 32.401312 94.354812 25.952094 100.800125 17.998969 100.800125 Z M 17.998969 100.800125 " transform="matrix(1,0,0,-1,366.044,190.972)"/>
<path style="fill-rule:nonzero;fill:rgb(100%,0%,45.095825%);fill-opacity:1;stroke-width:1.99255;stroke-linecap:butt;stroke-linejoin:miter;stroke:rgb(100%,0%,45.095825%);stroke-opacity:1;stroke-miterlimit:10;" d="M 17.998969 144.00325 L -18.001031 144.00325 C -25.954156 144.00325 -32.399469 137.554031 -32.399469 129.604812 C -32.399469 121.651687 -25.954156 115.202469 -18.001031 115.202469 L 17.998969 115.202469 C 25.952094 115.202469 32.401312 121.651687 32.401312 129.604812 C 32.401312 137.554031 25.952094 144.00325 17.998969 144.00325 Z M 17.998969 144.00325 " transform="matrix(1,0,0,-1,366.044,190.972)"/>
</g>
</svg>
